<mxfile host="app.diagrams.net" modified="2022-10-25T03:40:14.834Z" agent="5.0 (Windows NT 10.0; Win64; x64) AppleWebKit/537.36 (KHTML, like Gecko) Chrome/104.0.5112.102 Safari/537.36 Edg/104.0.1293.70" etag="-TqpU0T3kJDT_EcHa3Ee" version="20.5.1" type="github">
  <diagram id="2GxginjoimpM549GYD0j" name="第 1 页">
    <mxGraphModel dx="813" dy="459" grid="0" gridSize="10" guides="1" tooltips="1" connect="1" arrows="1" fold="1" page="1" pageScale="1" pageWidth="827" pageHeight="1169" math="1" shadow="0">
      <root>
        <mxCell id="0" />
        <mxCell id="1" parent="0" />
        <mxCell id="rzddsJ-avebsgfRxxGCW-1" value="" style="endArrow=classic;html=1;rounded=0;" parent="1" edge="1">
          <mxGeometry width="50" height="50" relative="1" as="geometry">
            <mxPoint x="200" y="440" as="sourcePoint" />
            <mxPoint x="580" y="440" as="targetPoint" />
          </mxGeometry>
        </mxCell>
        <mxCell id="rzddsJ-avebsgfRxxGCW-2" value="" style="endArrow=classic;html=1;rounded=0;" parent="1" edge="1">
          <mxGeometry width="50" height="50" relative="1" as="geometry">
            <mxPoint x="200" y="440" as="sourcePoint" />
            <mxPoint x="200" y="185" as="targetPoint" />
          </mxGeometry>
        </mxCell>
        <mxCell id="rzddsJ-avebsgfRxxGCW-9" value="" style="ellipse;whiteSpace=wrap;html=1;aspect=fixed;" parent="1" vertex="1">
          <mxGeometry x="296" y="345" width="12" height="12" as="geometry" />
        </mxCell>
        <mxCell id="rzddsJ-avebsgfRxxGCW-11" value="&lt;font style=&quot;font-size: 26px;&quot;&gt;`i`&lt;/font&gt;" style="text;html=1;resizable=0;autosize=1;align=center;verticalAlign=middle;points=[];fillColor=none;strokeColor=none;rounded=0;fontSize=26;fontStyle=1;fontFamily=Times New Roman;" parent="1" vertex="1">
          <mxGeometry x="571" y="417" width="43" height="43" as="geometry" />
        </mxCell>
        <mxCell id="rzddsJ-avebsgfRxxGCW-12" value="&lt;font style=&quot;font-size: 26px;&quot;&gt;`s[i]`&lt;br style=&quot;font-size: 26px;&quot;&gt;&lt;/font&gt;" style="text;html=1;resizable=0;autosize=1;align=center;verticalAlign=middle;points=[];fillColor=none;strokeColor=none;rounded=0;fontSize=26;fontStyle=1;fontFamily=Times New Roman;" parent="1" vertex="1">
          <mxGeometry x="166" y="144" width="70" height="43" as="geometry" />
        </mxCell>
        <mxCell id="rzddsJ-avebsgfRxxGCW-13" value="&lt;font style=&quot;font-size: 16px;&quot;&gt;`s[j]`&lt;/font&gt;" style="text;html=1;resizable=0;autosize=1;align=center;verticalAlign=middle;points=[];fillColor=none;strokeColor=none;rounded=0;fontSize=16;fontFamily=Garamond;" parent="1" vertex="1">
          <mxGeometry x="373" y="270" width="52" height="31" as="geometry" />
        </mxCell>
        <mxCell id="rzddsJ-avebsgfRxxGCW-14" value="`s[i]`" style="text;html=1;resizable=0;autosize=1;align=center;verticalAlign=middle;points=[];fillColor=none;strokeColor=none;rounded=0;fontSize=16;fontFamily=Garamond;fontStyle=0" parent="1" vertex="1">
          <mxGeometry x="442" y="324" width="50" height="31" as="geometry" />
        </mxCell>
        <mxCell id="rzddsJ-avebsgfRxxGCW-20" value="如果 `s[i]\le s[j]`，假如后续有数字 `x` 能和 `s[j]` 组成满足要求的子数组，&lt;br&gt;即 `x-s[j]\ge k`，那么必然也有 `x-s[i]\ge k`，由于从 `s[i]` 到 `x` 的这段子数组更短，&lt;br&gt;因此 `s[j]` 没有任何作用了，弹它！" style="text;html=1;resizable=0;autosize=1;align=left;verticalAlign=middle;points=[];fillColor=none;strokeColor=none;rounded=0;fontFamily=Garamond;fontSize=16;" parent="1" vertex="1">
          <mxGeometry x="103" y="450" width="622" height="70" as="geometry" />
        </mxCell>
        <mxCell id="rzddsJ-avebsgfRxxGCW-21" value="" style="ellipse;whiteSpace=wrap;html=1;aspect=fixed;" parent="1" vertex="1">
          <mxGeometry x="242" y="403" width="12" height="12" as="geometry" />
        </mxCell>
        <mxCell id="rzddsJ-avebsgfRxxGCW-22" value="" style="ellipse;whiteSpace=wrap;html=1;aspect=fixed;fillColor=#dae8fc;strokeColor=#6c8ebf;" parent="1" vertex="1">
          <mxGeometry x="442" y="324" width="12" height="12" as="geometry" />
        </mxCell>
        <mxCell id="rzddsJ-avebsgfRxxGCW-23" value="" style="ellipse;whiteSpace=wrap;html=1;aspect=fixed;fillColor=#dae8fc;strokeColor=#6c8ebf;" parent="1" vertex="1">
          <mxGeometry x="373" y="270" width="12" height="12" as="geometry" />
        </mxCell>
        <mxCell id="rzddsJ-avebsgfRxxGCW-24" value="" style="ellipse;whiteSpace=wrap;html=1;aspect=fixed;" parent="1" vertex="1">
          <mxGeometry x="501" y="191" width="12" height="12" as="geometry" />
        </mxCell>
        <mxCell id="22u9buMjlfEehSmvPOz0-2" value="`x`" style="text;html=1;resizable=0;autosize=1;align=center;verticalAlign=middle;points=[];fillColor=none;strokeColor=none;rounded=0;fontSize=16;fontFamily=Garamond;fontStyle=0" parent="1" vertex="1">
          <mxGeometry x="501" y="191" width="36" height="31" as="geometry" />
        </mxCell>
      </root>
    </mxGraphModel>
  </diagram>
</mxfile>
